<?xml version="1.0" encoding="UTF-8" standalone="no"?>
<!-- Created with Inkscape (http://www.inkscape.org/) -->

<svg
   xmlns:dc="http://purl.org/dc/elements/1.1/"
   xmlns:cc="http://creativecommons.org/ns#"
   xmlns:rdf="http://www.w3.org/1999/02/22-rdf-syntax-ns#"
   xmlns:svg="http://www.w3.org/2000/svg"
   xmlns="http://www.w3.org/2000/svg"
   xmlns:sodipodi="http://sodipodi.sourceforge.net/DTD/sodipodi-0.dtd"
   xmlns:inkscape="http://www.inkscape.org/namespaces/inkscape"
   width="192"
   height="192"
   viewBox="0 0 50.799999 50.800001"
   version="1.1"
   id="svg8"
   inkscape:version="0.92.1 r"
   sodipodi:docname="favicon.svg"
   inkscape:export-filename="favicon-192.png"
   inkscape:export-xdpi="96"
   inkscape:export-ydpi="96">
  <defs
     id="defs2" />
  <sodipodi:namedview
     id="base"
     pagecolor="#ffffff"
     bordercolor="#666666"
     borderopacity="1.0"
     inkscape:pageopacity="0.0"
     inkscape:pageshadow="2"
     inkscape:zoom="1.979899"
     inkscape:cx="106.22189"
     inkscape:cy="131.06662"
     inkscape:document-units="mm"
     inkscape:current-layer="layer1"
     showgrid="false"
     units="px"
     inkscape:window-width="1438"
     inkscape:window-height="878"
     inkscape:window-x="0"
     inkscape:window-y="0"
     inkscape:window-maximized="0" />
  <metadata
     id="metadata5">
    <rdf:RDF>
      <cc:Work
         rdf:about="">
        <dc:format>image/svg+xml</dc:format>
        <dc:type
           rdf:resource="http://purl.org/dc/dcmitype/StillImage" />
        <dc:title></dc:title>
      </cc:Work>
    </rdf:RDF>
  </metadata>
  <g
     inkscape:label="Layer 1"
     inkscape:groupmode="layer"
     id="layer1"
     transform="translate(0,-246.19998)">
    <circle
       style="color:#000000;clip-rule:nonzero;display:inline;overflow:visible;visibility:visible;opacity:1;isolation:auto;mix-blend-mode:normal;color-interpolation:sRGB;color-interpolation-filters:linearRGB;solid-color:#000000;solid-opacity:1;fill:#84c4ff;fill-opacity:1;fill-rule:evenodd;stroke:none;stroke-width:0.2585887;stroke-linecap:round;stroke-linejoin:round;stroke-miterlimit:4;stroke-dasharray:none;stroke-dashoffset:0;stroke-opacity:1;marker:none;color-rendering:auto;image-rendering:auto;shape-rendering:auto;text-rendering:auto;enable-background:accumulate"
       id="path4513"
       cx="26.125595"
       cy="271.27527"
       r="24.254709" />
    <g
       aria-label="C"
       style="font-style:normal;font-weight:normal;font-size:68.48493958px;line-height:42.80308533px;font-family:sans-serif;letter-spacing:0px;word-spacing:0px;fill:#000000;fill-opacity:1;stroke:none;stroke-width:1.71212351px;stroke-linecap:butt;stroke-linejoin:miter;stroke-opacity:1"
       id="text4487">
      <path
         d="m 44.546768,285.25239 2.407673,1.63856 q -3.477751,4.7819 -8.828137,7.55742 -5.350385,2.74207 -11.536769,2.74207 -5.149747,0 -9.831334,-2.00639 -4.681588,-2.0064 -8.059019,-5.41727 -3.3774311,-3.41087 -5.3838258,-8.1259 -2.0063947,-4.71503 -2.0063947,-9.89821 0,-5.18319 2.0063947,-9.89822 2.0063947,-4.71502 5.3838258,-8.1259 3.377431,-3.41087 8.059019,-5.41726 4.681587,-2.0064 9.831334,-2.0064 6.152944,0 11.50333,2.80896 5.350385,2.77551 8.861576,7.59086 l -2.407673,1.77231 q -3.109912,-4.17999 -7.82494,-6.58766 -4.681587,-2.44111 -10.132293,-2.44111 -6.086064,0 -11.235811,3.00959 -5.116306,3.00959 -8.0924582,8.19278 -2.9761522,5.14974 -2.9761522,11.26925 0,4.54782 1.7388755,8.69437 1.7723153,4.14655 4.7484679,7.15615 2.976152,3.00959 7.122701,4.81534 4.146549,1.77232 8.694377,1.77232 5.450706,0 10.132293,-2.44112 4.715028,-2.44111 7.82494,-6.65454 z"
         style="font-style:normal;font-variant:normal;font-weight:normal;font-stretch:normal;font-family:Sawasdee;-inkscape-font-specification:Sawasdee;stroke-width:1.71212351px"
         id="path4510" />
    </g>
    <g
       aria-label="Z"
       style="font-style:normal;font-weight:normal;font-size:68.48493958px;line-height:42.80308533px;font-family:sans-serif;letter-spacing:0px;word-spacing:0px;fill:#000000;fill-opacity:1;stroke:none;stroke-width:1.71212351px;stroke-linecap:butt;stroke-linejoin:miter;stroke-opacity:1"
       id="text4487-3"
       transform="translate(-0.53453906,0.53453906)">
      <path
         d="m 15.037456,256.346 h 26.22351 l -22.579808,26.47008 h 23.081655 l -2.673694,3.00959 H 11.62671 L 34.540668,259.35559 H 11.929542 Z"
         style="font-style:normal;font-variant:normal;font-weight:normal;font-stretch:normal;font-family:Sawasdee;-inkscape-font-specification:Sawasdee;stroke-width:1.71212351px"
         id="path4507"
         inkscape:connector-curvature="0"
         sodipodi:nodetypes="ccccccccc" />
    </g>
  </g>
</svg>
